<svg width="32" height="36" viewBox="0 0 32 36" fill="none" xmlns="http://www.w3.org/2000/svg">
<path d="M2.24934 4.40542C0 6.62918 0 10.2087 0 17.3671V18.6325C0 25.7909 0 29.3705 2.24934 31.5942C4.49866 33.818 8.11936 33.818 15.36 33.818H16.64C23.8806 33.818 27.5014 33.818 29.7506 31.5942C32 29.3705 32 25.7909 32 18.6325V17.3671C32 10.2087 32 6.62918 29.7506 4.40542C27.5014 2.18164 23.8806 2.18164 16.64 2.18164H15.36C8.11936 2.18164 4.49866 2.18164 2.24934 4.40542ZM5.4 11.8044H9.05336C9.17336 17.8416 11.8666 20.3989 14 20.9262V11.8044H17.44V17.0112C19.5466 16.7871 21.76 14.4144 22.5066 11.8044H25.9466C25.6652 13.158 25.1043 14.4395 24.299 15.5691C23.4938 16.6986 22.4615 17.6518 21.2666 18.3689C22.6007 19.0237 23.7791 19.951 24.7237 21.0894C25.6684 22.2279 26.3579 23.5516 26.7466 24.973H22.96C22.6111 23.7383 21.901 22.633 20.9189 21.7958C19.9369 20.9586 18.7266 20.4268 17.44 20.2671V24.973H17.0266C9.73336 24.973 5.57334 20.0298 5.4 11.8044Z" fill="black"/>
</svg>
